<svg xmlns="http://www.w3.org/2000/svg" viewBox="0 0 198.08 198.5"><defs><style>.cls-1{fill:#fff;}</style></defs><title>Evox-Branco_2logotype</title><g id="Camada_2" data-name="Camada 2"><g id="Camada_10" data-name="Camada 10"><path class="cls-1" d="M191.63,134.51a99.55,99.55,0,0,0,.08-70.31l-37.17,35.2Z"/><path class="cls-1" d="M63.86,15.59a5.1,5.1,0,0,1,2.76.79,4.34,4.34,0,0,1,1,.71l72.5,68.65,42.28-40a99.29,99.29,0,0,0-137-30.12Z"/><path class="cls-1" d="M140.13,113l-72.5,68.65a4.34,4.34,0,0,1-1,.71,5.1,5.1,0,0,1-2.76.79h-18A99.28,99.28,0,0,0,182.3,153Z"/><path class="cls-1" d="M115.94,90.13,56.63,34H24.07A98.83,98.83,0,0,0,0,90.13Z"/><path class="cls-1" d="M116.08,108.52H0a98.83,98.83,0,0,0,24.3,56.29H56.63Z"/></g></g></svg>